<svg xmlns="http://www.w3.org/2000/svg" fill="none" viewBox="0 0 483 483">
  <path fill="#A7E3A1"
    d="M241.5 0C108.336 0 0 108.336 0 241.5S108.336 483 241.5 483 483 374.664 483 241.5 374.633 0 241.5 0M50.996 241.5c0-44.622 15.427-85.674 41.212-118.184 5.131-.701 10.231-1.084 15.108-1.084 23.426 0 40.255 6.502 49.976 19.347 10.136 13.355 11.729 32.606 4.813 57.18l-38.471 136.702H75.825C60.048 307.7 50.996 275.668 50.996 241.5m65.754 143.842h103.491l13.641-49.881h-51.888l44.175-156.942c13.642-42.645.574-65.084-21.1-76.431-25.37-13.259-62.566-11.41-82.741-9.083 32.669-26.263 74.104-42.009 119.172-42.009 47.682 0 91.316 17.626 124.75 46.662H262.695l-13.641 49.913h51.952l-44.175 156.941c-13.61 42.583-.638 65.021 21.036 76.368 25.371 13.322 62.598 11.442 82.837 9.115-32.669 26.263-74.104 42.009-119.172 42.009-47.682 0-91.316-17.626-124.75-46.662zm274.042-25.69c-5.131.702-10.231 1.084-15.108 1.084-23.426 0-40.255-6.502-49.976-19.347-10.136-13.354-11.729-32.606-4.813-57.179l38.471-136.703h47.809c15.777 27.761 24.829 59.794 24.829 93.961 0 44.622-15.427 85.674-41.212 118.184">
  </path>
</svg>