<svg xmlns="http://www.w3.org/2000/svg" fill="none" viewBox="0 0 157 27">
  <g clip-path="url(#oddbit-logo_svg__a)">
    <path fill="currentColor"
      d="M34.333 13.523c-.033.27-.069.636-.069 1.279 0 3.836 3.131 7.064 6.765 7.064s6.559-3.027 6.559-6.931-2.86-6.794-6.863-6.794c-3.33 0-6.192 2.523-7.166 3.6l1.985-3.904c1.175-.809 3.365-1.652 5.35-1.652 4.81 0 8.782 3.969 8.782 8.818s-3.905 8.818-8.645 8.818c-3.463 0-7.539-2.321-8.445-6.897l1.75-3.4zM51.024 15.002c0-4.983 3.968-8.612 8.044-8.612 2.053 0 3.836.642 5.08 1.548l1.279 2.523c-1.583-1.21-3.767-2.184-5.82-2.184-3.938 0-6.496 3.297-6.496 6.732 0 3.634 2.791 6.862 6.662 6.862 3.262 0 6.461-2.827 6.461-6.862V.466h2.087V15c0 5.28-4.408 8.818-8.548 8.818-4.844 0-8.749-3.905-8.749-8.818zM70.063 15.002c0-4.983 3.968-8.612 8.044-8.612 2.053 0 3.835.642 5.08 1.548l1.278 2.523c-1.583-1.21-3.766-2.184-5.82-2.184-3.937 0-6.496 3.297-6.496 6.732 0 3.634 2.792 6.862 6.663 6.862 3.263 0 6.46-2.827 6.46-6.862V.466h2.087V15c0 5.28-4.408 8.818-8.547 8.818-4.845 0-8.75-3.905-8.75-8.818zM89.642 15.002V.466h2.087V15c0 4.037 3.2 6.862 6.46 6.862 3.87 0 6.663-3.228 6.663-6.862 0-3.435-2.556-6.732-6.496-6.732-2.053 0-4.237.976-5.82 2.184l1.28-2.523c1.243-.906 3.026-1.547 5.079-1.547 4.07 0 8.044 3.634 8.044 8.61 0 4.978-3.905 8.819-8.75 8.819-4.139 0-8.547-3.532-8.547-8.818v.009000000000000001M108.481 2.954c0-.774.671-1.41 1.445-1.41s1.446.641 1.446 1.41-.672 1.41-1.446 1.41-1.445-.641-1.445-1.41m.401 20.394V6.658h2.087v16.69zM113.389 16.887V7.095l2.087-2.183v11.134c0 3.634 1.948 5.82 4.948 5.82 1.147 0 2.288-.304 3.262-.94v1.886c-.976.705-2.122 1.01-3.435 1.01-3.767 0-6.862-2.994-6.862-6.932zm2.763-8.28 1.009-1.948h6.53v1.949zM133.196 5.069c.082.284.158.46.227.546h-.734a3 3 0 0 1-.157-.47l-.256-1.023c-.168-.64-.373-.838-.901-.838h-.912V5.61h-.68V.47h1.883c.914 0 1.605.454 1.605 1.355 0 .726-.454 1.15-1.082 1.28.338.103.576.36.709.872l.302 1.099-.005-.005zm-2.738-2.262h1.035c.721 0 1.099-.332 1.099-.936s-.373-.924-1.058-.924h-1.076zM134.475 3.562v.058c0 1.058.536 1.634 1.529 1.634a2.1 2.1 0 0 0 .662-.099v.407c-.145.069-.5.134-.837.134-1.454 0-1.988-.855-1.988-2.035s.68-1.889 1.569-1.889 1.477.64 1.442 1.785h-2.384l.006.005zm.034-.424h1.721c-.059-.576-.325-.942-.832-.942s-.785.373-.889.942M137.608 5.61V.47h.652v5.14zM139.265 1.22V.525h.721v.698h-.721zm.036 4.388v-3.72h.65v3.727h-.65v-.007M143.624 2.99V5.61h-.604v-.657c-.198.454-.587.761-1.158.761-.65 0-1.086-.395-1.086-1.017 0-.977.982-1.308 2.215-1.33v-.373c0-.553-.251-.797-.68-.797s-.721.297-.814.645h-.612c.158-.635.734-1.064 1.442-1.064.792 0 1.302.384 1.302 1.209h-.005zm-.633 1.098v-.307c-.913.005-1.581.226-1.581.86 0 .373.233.628.634.628.599 0 .942-.582.942-1.18zM147.88 3.754c0 1.158-.535 1.96-1.452 1.96-.546 0-.965-.285-1.18-.797v.698h-.622V.47h.65v2.035c.221-.46.634-.72 1.152-.72.913 0 1.452.814 1.452 1.964zm-.68 0c0-.86-.267-1.505-.924-1.505-.553 0-.988.512-1 1.216v.553c0 .698.436 1.233 1 1.233.657 0 .924-.627.924-1.495zM148.687 5.61V.47h.652v5.14zM150.763 3.562v.058c0 1.058.536 1.634 1.529 1.634a2.1 2.1 0 0 0 .662-.099v.407c-.145.069-.5.134-.837.134-1.454 0-1.988-.855-1.988-2.035s.68-1.889 1.569-1.889 1.477.64 1.442 1.785h-2.378v.005zm.041-.424h1.721c-.058-.576-.325-.942-.832-.942s-.785.373-.889.942M133.679 12.102c0 1.564-.977 2.576-2.389 2.576h-1.51v-5.14h1.51c1.406 0 2.389 1.006 2.389 2.564m-2.43 2.087c1.087 0 1.716-.889 1.716-2.087 0-1.197-.627-2.076-1.716-2.076h-.784v4.163zM134.48 10.288V9.59h.716v.698zm.036 4.389V10.95h.65v3.727zM138.539 10.958h.604v3.4c0 1.018-.662 1.605-1.766 1.605-.43 0-.79-.076-.937-.145v-.414c.135.059.5.122.825.122.889 0 1.239-.471 1.239-1.175v-.378c-.221.437-.604.686-1.104.686-.901 0-1.419-.774-1.419-1.896s.523-1.896 1.419-1.896c.528 0 .936.28 1.139.762v-.675zm-.035 2.058v-.553c-.005-.65-.424-1.15-.942-1.15-.634 0-.901.621-.901 1.441s.267 1.442.901 1.442c.528 0 .942-.505.942-1.185zM140.131 10.288V9.59h.721v.698zm.041 4.389V10.95h.65v3.727zM143.525 14.276v.4a2.2 2.2 0 0 1-.513.059c-.528 0-.901-.127-.901-.815v-2.523h-.558v-.447h.558v-.848l.651-.307v1.157h.733v.447h-.733v2.442c0 .383.18.472.482.472a1 1 0 0 0 .279-.029v-.005zM146.845 12.055v2.622h-.605v-.658c-.197.454-.586.762-1.157.762-.65 0-1.086-.396-1.086-1.018 0-.977.982-1.307 2.213-1.33v-.373c0-.553-.249-.797-.68-.797s-.721.297-.814.645h-.61c.157-.634.732-1.064 1.442-1.064.79 0 1.302.384 1.302 1.209h-.005zm-.64 1.099v-.308c-.911.005-1.581.226-1.581.86 0 .373.233.628.634.628.599 0 .942-.582.942-1.18zM147.85 14.678v-5.14h.652v5.14zM129.476 23.314v-.586c.279.266.901.65 1.662.65.64 0 .936-.332.936-.78 0-.494-.395-.801-1.086-1.208l-.285-.175c-.685-.413-1.162-.802-1.162-1.487 0-.686.558-1.226 1.505-1.226.68 0 1.157.226 1.412.424v.563a2.1 2.1 0 0 0-1.378-.512c-.569 0-.884.297-.884.685s.32.663.873 1l.308.186c.784.472 1.355.924 1.355 1.692 0 .769-.576 1.313-1.552 1.313-.814 0-1.441-.325-1.703-.546v.006zM133.283 21.89c0-1.185.68-1.97 1.657-1.97s1.658.785 1.658 1.97-.675 1.97-1.658 1.97-1.657-.797-1.657-1.97m2.64 0c0-.93-.361-1.54-.983-1.54s-.977.634-.977 1.54c0 .907.361 1.535.977 1.535.617 0 .983-.61.983-1.535M137.4 23.744v-5.138h.65v5.137zM141.276 20.025h.65v3.726h-.622v-.815c-.221.553-.703.924-1.261.924-.698 0-.977-.454-.977-1.168V20.03h.639v2.517c0 .477.122.78.546.78.558 0 1.018-.587 1.018-1.227v-2.068l.005-.006zM144.629 23.351v.401c-.104.03-.307.059-.512.059-.529 0-.901-.128-.901-.815v-2.523h-.559v-.447h.559v-.848l.65-.307v1.157h.733v.447h-.733v2.442c0 .383.18.471.482.471a1 1 0 0 0 .279-.028v-.005zM145.334 19.355v-.698h.721v.698zm.034 4.389v-3.727h.65v3.727zM146.811 21.89c0-1.185.68-1.97 1.657-1.97s1.658.785 1.658 1.97-.675 1.97-1.658 1.97-1.657-.797-1.657-1.97m2.638 0c0-.93-.36-1.54-.982-1.54s-.977.634-.977 1.54c0 .907.36 1.535.977 1.535.616 0 .982-.61.982-1.535M153.809 21.088v2.663h-.65v-2.523c0-.477-.122-.774-.558-.774-.576 0-1.028.599-1.028 1.233v2.064h-.651v-3.727h.622v.808c.221-.546.704-.913 1.262-.913.703 0 1.005.454 1.005 1.167zM154.553 23.46v-.513c.208.226.663.472 1.203.472.447 0 .645-.21.645-.506 0-.32-.267-.51-.675-.761l-.302-.193c-.505-.302-.814-.599-.814-1.093 0-.546.471-.942 1.162-.942.5 0 .873.168 1.041.32v.512a1.5 1.5 0 0 0-1.011-.396c-.36 0-.599.186-.599.46 0 .273.256.454.581.651l.303.18c.575.333.913.676.913 1.21 0 .598-.424 1.005-1.186 1.005-.634 0-1.063-.221-1.261-.402z">
    </path>
    <path fill="#A7E3A1"
      d="M13.387 0C6.005 0 0 6.005 0 13.387c0 7.381 6.005 13.386 13.387 13.386 7.381 0 13.386-6.005 13.386-13.386C26.774 6.005 20.768 0 13.388 0M2.827 13.387c0-2.474.855-4.75 2.284-6.551.285-.04.567-.06.838-.06 1.298 0 2.231.36 2.77 1.072.562.74.65 1.807.267 3.17l-2.133 7.577h-2.65a10.5 10.5 0 0 1-1.376-5.208m3.645 7.973h5.736l.756-2.765h-2.876l2.449-8.7c.756-2.363.032-3.607-1.17-4.236-1.406-.735-3.468-.633-4.586-.504a10.5 10.5 0 0 1 6.606-2.328c2.643 0 5.062.977 6.915 2.586h-5.74l-.756 2.767h2.88l-2.45 8.7c-.754 2.36-.035 3.604 1.167 4.233 1.406.738 3.47.634 4.591.505a10.5 10.5 0 0 1-6.605 2.329c-2.643 0-5.062-.977-6.916-2.587zm15.19-1.424c-.284.039-.567.06-.837.06-1.299 0-2.232-.36-2.77-1.072-.562-.74-.65-1.808-.267-3.17l2.132-7.577h2.65a10.5 10.5 0 0 1 1.377 5.208c0 2.473-.855 4.75-2.285 6.551">
    </path>
  </g>
  <defs>
    <clipPath id="oddbit-logo_svg__a">
      <path fill="currentColor" d="M0 0h157v26.772H0z"></path>
    </clipPath>
  </defs>
</svg>